<svg width="125" height="72" viewBox="0 0 125 72" fill="none" xmlns="http://www.w3.org/2000/svg">
<path d="M55.6266 46.7001C55.2266 47.0677 55.0266 47.4352 54.7266 47.5577C44.5266 55.1534 33.9266 61.6465 22.2266 65.4444C16.9266 67.1595 11.5266 67.8946 6.1266 68.2622C4.7266 68.3847 3.2266 68.6297 1.8266 68.8747C1.3266 68.9972 0.726601 69.2422 0.326601 69.6098C0.126601 69.8548 -0.0733989 70.4674 0.0266012 70.8349C0.126601 71.2024 0.626601 71.4475 0.926601 71.4475C14.2266 70.9574 27.2266 68.2622 39.3266 61.1565C45.5266 57.4811 51.6266 53.6833 57.4266 49.1504C58.0266 48.6603 58.9266 48.0478 59.5266 48.1703C67.3266 49.7629 74.9266 48.1703 82.2266 45.3525C93.5266 41.0646 104.627 36.1641 115.827 31.5087C116.527 31.2637 117.327 30.8961 118.327 31.0187C113.527 38.6144 108.627 46.0876 103.727 53.8058C104.827 54.7859 105.627 54.5409 106.427 53.9283C107.327 53.1932 108.327 52.4582 109.127 51.4781C113.427 45.9651 117.727 40.452 121.927 34.8165C122.827 33.5914 123.527 32.1213 124.127 30.6511C125.227 27.7108 124.127 25.3831 121.527 24.8931C116.427 24.0355 111.427 23.3004 106.327 22.6879C104.827 22.4429 103.927 23.1779 103.727 24.5255C103.627 25.7507 104.327 26.8533 105.827 27.2208C108.427 27.8334 111.027 28.2009 113.927 28.8134C113.427 29.181 113.227 29.426 112.927 29.5485C101.627 33.7139 90.3266 38.0018 78.9266 41.9222C75.5266 43.1473 71.8266 43.5148 68.3266 44.1274C66.9266 44.3724 65.4266 44.1274 63.6266 44.1274C64.2266 43.2698 64.7266 42.6572 65.1266 42.1672C68.5266 38.4919 71.6266 34.3265 74.0266 29.5485C76.1266 25.2606 77.4266 20.7277 77.3266 15.5822C77.2266 13.867 77.1266 12.0294 76.7266 10.3142C75.0266 2.7185 69.4266 -1.32437 62.9266 0.390787C54.8266 2.35097 44.9266 12.2744 45.0266 26.6082C45.0266 34.694 48.1266 40.8196 53.6266 45.23C54.2266 45.72 54.9266 46.2101 55.6266 46.7001ZM74.5266 15.4597C74.4266 20.1151 73.4266 24.0355 71.6266 27.5883C68.9266 33.3464 65.1266 38.0018 61.0266 42.1672C60.1266 43.1473 59.2266 43.1473 58.1266 42.7798C52.4266 40.5746 48.2266 33.2239 48.4266 25.9957C48.7266 16.1948 55.5266 6.14883 63.4266 4.06613C68.7266 2.59599 72.8266 5.78129 74.1266 12.1519C74.3266 13.377 74.4266 14.7246 74.5266 15.4597Z" fill="black"/>
</svg>
